<svg width="512" height="512" viewBox="0 0 512 512" fill="none" xmlns="http://www.w3.org/2000/svg">
<rect width="512" height="512" fill="#00FF19"/>
<mask id="mask0_513_346" style="mask-type:alpha" maskUnits="userSpaceOnUse" x="68" y="68" width="376" height="376">
<rect x="443.199" y="68.7998" width="374.4" height="374.4" transform="rotate(90 443.199 68.7998)" fill="#D9D9D9"/>
</mask>
<g mask="url(#mask0_513_346)">
<path d="M115.6 193.6C115.6 172.02 123.205 153.625 138.415 138.415C153.625 123.205 172.02 115.6 193.6 115.6L346.48 115.6C360.52 115.6 372.35 119.89 381.97 128.47C391.59 137.05 396.4 148.36 396.4 162.4C396.4 176.44 392.11 187.75 383.53 196.33C374.95 204.91 363.64 209.2 349.6 209.2C336.34 209.2 325.225 204.715 316.255 195.745C307.285 186.775 302.8 175.66 302.8 162.4V146.8H193.6C180.6 146.8 169.55 151.35 160.45 160.45C151.35 169.55 146.8 180.6 146.8 193.6C146.8 206.6 151.35 217.65 160.45 226.75C169.55 235.85 180.6 240.4 193.6 240.4H318.4C339.98 240.4 358.375 248.005 373.585 263.215C388.795 278.425 396.4 296.82 396.4 318.4C396.4 339.98 388.795 358.375 373.585 373.585C358.375 388.795 339.98 396.4 318.4 396.4H162.4C149.14 396.4 138.025 391.395 129.055 381.385C120.085 371.375 115.6 359.74 115.6 346.48C115.6 333.22 120.085 322.625 129.055 314.695C138.025 306.765 149.14 302.8 162.4 302.8C175.66 302.8 186.775 307.285 195.745 316.255C204.715 325.225 209.2 336.34 209.2 349.6V365.2H318.4C331.4 365.2 342.45 360.65 351.55 351.55C360.65 342.45 365.2 331.4 365.2 318.4C365.2 305.4 360.65 294.35 351.55 285.25C342.45 276.15 331.4 271.6 318.4 271.6H193.6C172.02 271.6 153.625 263.995 138.415 248.785C123.205 233.575 115.6 215.18 115.6 193.6ZM334 146.8V162.4C334 166.82 335.495 170.525 338.485 173.515C341.475 176.505 345.18 178 349.6 178C354.02 178 357.725 176.505 360.715 173.515C363.705 170.525 365.2 166.82 365.2 162.4C365.2 157.98 363.705 154.275 360.715 151.285C357.725 148.295 354.02 146.8 349.6 146.8H334ZM146.8 349.6C146.8 354.02 148.295 357.725 151.285 360.715C154.275 363.705 157.98 365.2 162.4 365.2H178V349.6C178 345.18 176.505 341.475 173.515 338.485C170.525 335.495 166.82 334 162.4 334C157.98 334 154.275 335.495 151.285 338.485C148.295 341.475 146.8 345.18 146.8 349.6Z" fill="#0E460C"/>
</g>
</svg>
