<svg viewBox="0 0 512 512" xmlns="http://www.w3.org/2000/svg">
  <rect width="512" height="512" rx="64" ry="64" fill="#00ff66"/>
  <path d="M120 160 C120 120, 160 80, 200 80 L320 80 C360 80, 400 120, 400 160 C400 200, 360 240, 320 240 L240 240 C200 240, 160 200, 160 160 C160 150, 170 140, 180 140 C190 140, 200 150, 200 160 C200 170, 210 180, 220 180 L300 180 C310 180, 320 170, 320 160 C320 150, 310 140, 300 140 L200 140 C160 140, 120 100, 120 160 Z M392 352 C392 392, 352 432, 312 432 L192 432 C152 432, 112 392, 112 352 C112 312, 152 272, 192 272 L272 272 C312 272, 352 312, 352 352 C352 362, 342 372, 332 372 C322 372, 312 362, 312 352 C312 342, 302 332, 292 332 L212 332 C202 332, 192 342, 192 352 C192 362, 202 372, 212 372 L312 372 C352 372, 392 412, 392 352 Z" fill="#2d4a2b"/>
</svg>